<svg width="290" height="64" viewBox="0 0 290 64" fill="none" xmlns="http://www.w3.org/2000/svg">
<path fill-rule="evenodd" clip-rule="evenodd" d="M196.12 19.1596C195.416 19.454 194.748 19.8274 194.128 20.2726L172.938 34.1154V34.1532C172.938 34.1721 172.956 34.191 172.975 34.2099C172.994 34.2841 174.835 40.4709 176.094 44.4871L176.595 37.0754C176.608 36.9186 176.657 36.767 176.739 36.6328C176.82 36.4985 176.932 36.3854 177.065 36.3023L193.95 22.253C193.95 22.253 196.373 20.1404 196.899 19.4618C197.039 19.2919 196.871 19.0085 196.12 19.1596Z" fill="#F6F7F7"/>
<path fill-rule="evenodd" clip-rule="evenodd" d="M151.258 0.000488281V62.951H213.953V0.000488281H151.258ZM204.862 16.2002L204.505 18.0471C202.833 26.4825 200.034 40.5834 198.118 48.033C197.992 48.7424 197.633 49.3891 197.099 49.8707C196.565 50.3524 195.887 50.6414 195.171 50.692C194.315 50.6542 193.493 50.3457 192.822 49.8107C190.512 48.1324 186.398 45.0579 182.943 42.4744C181.196 41.155 179.619 39.9665 178.529 39.1557L177.947 47.5105C177.931 47.7303 177.837 47.9372 177.684 48.0947C177.519 48.2949 177.284 48.4234 177.027 48.4535C176.944 48.4674 176.86 48.4738 176.776 48.4724C176.356 48.5131 175.935 48.4155 175.576 48.1942C175.216 47.9729 174.939 47.6401 174.785 47.2461C173.827 44.2849 171.743 37.383 171.16 35.4025C169.357 34.875 163.61 33.1968 160.849 31.9705C160.392 31.7441 160.029 31.362 159.826 30.8924C159.623 30.4227 159.593 29.8959 159.74 29.4059C159.918 29.0084 160.177 28.6533 160.501 28.364C160.826 28.0746 161.207 27.8578 161.621 27.7277C172.741 23.1449 199.824 12.753 200.106 12.6397C200.703 12.4244 201.331 12.3099 201.965 12.301C202.522 12.2622 203.078 12.3924 203.561 12.6749C204.043 12.9573 204.43 13.379 204.67 13.8849C205.004 14.6098 205.072 15.4298 204.862 16.2002Z" fill="#F6F7F7"/>
<path d="M91.2812 12.7041L119.707 50.0086H124.058L95.9583 12.7041H91.2812Z" fill="#F6F7F7"/>
<path d="M76.375 0.000488281V62.951H139.07V0.000488281H76.375ZM117.528 54.7297L105.215 38.4758L90.9704 54.7297H83.1084L101.453 33.6538L82.1053 8.22183H98.3182L109.516 23.0781L122.456 8.22183H130.293L113.152 27.9253L133.34 54.7297H117.528Z" fill="#F6F7F7"/>
<path d="M48.3775 18.2921C48.0285 17.3439 47.4713 16.4867 46.7474 15.7841C46.0385 15.0631 45.179 14.5092 44.2309 14.1625C42.9328 13.6757 41.5599 13.4201 40.1744 13.4071C37.8634 13.2938 37.1877 13.2812 31.347 13.2812C25.5064 13.2812 24.8267 13.3001 22.5183 13.4071C21.1329 13.4223 19.7606 13.6778 18.462 14.1625C17.5161 14.5138 16.6574 15.0671 15.9453 15.7841C15.2172 16.4832 14.6595 17.3414 14.3153 18.2921C13.8332 19.5835 13.5787 20.9494 13.563 22.3285C13.4514 24.6287 13.4375 25.3073 13.4375 31.1352C13.4375 36.9431 13.4564 37.6418 13.563 39.942C13.5773 41.3274 13.8318 42.6997 14.3153 43.9973C14.6645 44.9454 15.2215 45.8026 15.9453 46.5053C16.6545 47.2259 17.5141 47.7797 18.462 48.1269C19.76 48.6137 21.1327 48.8693 22.5183 48.8823C24.8292 48.9956 25.5051 49.0081 31.347 49.0081C37.1689 49.0081 37.8672 48.9893 40.1744 48.8823C41.5597 48.8671 42.9322 48.6116 44.2309 48.1269C45.1765 47.7751 46.0349 47.2219 46.7474 46.5053C47.475 45.8058 48.0328 44.9477 48.3775 43.9973C48.86 42.6994 49.1146 41.3273 49.1298 39.942C49.2427 37.6418 49.2552 36.9619 49.2552 31.1352C49.2552 25.3085 49.2364 24.6287 49.1298 22.3285C49.1176 20.949 48.863 19.5826 48.3775 18.2921ZM31.3608 42.3178C28.3972 42.3272 25.5511 41.1544 23.4483 39.0575C21.3455 36.9605 20.1582 34.111 20.1472 31.1352C20.151 29.6613 20.4441 28.2025 21.0099 26.8424C21.5757 25.4823 22.403 24.2476 23.4445 23.2089C24.486 22.1701 25.7214 21.3478 27.0798 20.7888C28.4381 20.2299 29.8928 19.9453 31.3608 19.9515C34.3244 19.9424 37.1704 21.1154 39.273 23.2126C41.3755 25.3098 42.5625 28.1595 42.5732 31.1352C42.5702 32.6093 42.2776 34.0683 41.7122 35.4286C41.1467 36.7889 40.3196 38.0238 39.278 39.0626C38.2365 40.1014 37.0009 40.9236 35.6423 41.4822C34.2837 42.0408 32.8288 42.3248 31.3608 42.3178ZM43.022 22.1208C42.6788 22.1216 42.339 22.0543 42.0218 21.9229C41.7047 21.7915 41.4164 21.5985 41.1737 21.3549C40.931 21.1114 40.7387 20.8221 40.6077 20.5037C40.4766 20.1852 40.4096 19.844 40.4102 19.4995C40.4096 19.1549 40.4766 18.8137 40.6077 18.4953C40.7387 18.1769 40.931 17.8876 41.1737 17.6441C41.4164 17.4005 41.7047 17.2075 42.0218 17.076C42.339 16.9446 42.6788 16.8774 43.022 16.8782C43.365 16.8774 43.705 16.9446 44.0221 17.076C44.3392 17.2075 44.6273 17.4006 44.8699 17.6441C45.1125 17.8877 45.3047 18.1769 45.4356 18.4953C45.5665 18.8137 45.6334 19.155 45.6326 19.4995C45.6333 19.8437 45.5663 20.1846 45.4355 20.5028C45.3047 20.821 45.1126 21.11 44.8704 21.3535C44.6281 21.5971 44.3403 21.7902 44.0236 21.9218C43.7069 22.0535 43.3674 22.1211 43.0246 22.1208H43.022Z" fill="#F6F7F7"/>
<path d="M0 0V62.9505H62.6949V0H0ZM53.0398 40.1121C53.0038 41.9172 52.6612 43.703 52.0267 45.3924C51.4747 46.8483 50.6159 48.1672 49.5089 49.2588C48.4181 50.3693 47.0976 51.2255 45.6407 51.7667C43.945 52.4038 42.1541 52.7481 40.3441 52.7852C38.0143 52.8985 37.2633 52.9175 31.3474 52.9175C25.4115 52.9175 24.6792 52.8985 22.3507 52.7852C20.5406 52.7483 18.7498 52.404 17.0542 51.7667C15.6028 51.2138 14.2843 50.3591 13.1848 49.2588C12.0738 48.1707 11.2146 46.8508 10.6681 45.3924C10.0325 43.7033 9.68943 41.9174 9.65373 40.1121C9.54088 37.793 9.52837 37.0375 9.52837 31.1353C9.52837 25.218 9.54715 24.4777 9.65373 22.1586C9.68928 20.3532 10.0323 18.5674 10.6681 16.8783C11.2189 15.4221 12.0775 14.1029 13.1848 13.0118C14.2757 11.9009 15.5967 11.0446 17.0542 10.5039C18.7496 9.86598 20.5405 9.52163 22.3507 9.48538C24.6792 9.37207 25.4303 9.35943 31.3474 9.35943C37.2646 9.35943 38.0143 9.37836 40.3441 9.48538C42.1542 9.52189 43.9452 9.86624 45.6407 10.5039C47.0919 11.0564 48.4102 11.9111 49.5089 13.0118C50.6201 14.0999 51.4796 15.4199 52.0267 16.8783C52.6614 18.5676 53.004 20.3534 53.0398 22.1586C53.1526 24.4777 53.1716 25.2318 53.1716 31.1353C53.1716 37.0388 53.1526 37.793 53.0398 40.1121Z" fill="#F6F7F7"/>
<path d="M31.3352 23.8751C30.3824 23.871 29.4383 24.0557 28.5568 24.4186C27.6752 24.7815 26.8736 25.3154 26.198 25.9899C25.5224 26.6644 24.9861 27.4662 24.6197 28.3492C24.2532 29.2322 24.0638 30.1792 24.0625 31.1358C24.064 32.0924 24.2534 33.0393 24.62 33.9222C24.9865 34.8052 25.5229 35.6068 26.1985 36.2813C26.8741 36.9557 27.6755 37.4898 28.5569 37.8527C29.4384 38.2157 30.3825 38.4005 31.3352 38.3965C32.2878 38.4005 33.232 38.2157 34.1134 37.8527C34.9949 37.4898 35.7963 36.9557 36.4718 36.2813C37.1474 35.6068 37.6839 34.8052 38.0504 33.9222C38.4169 33.0393 38.6062 32.0924 38.6077 31.1358C38.6079 30.1788 38.4197 29.2311 38.0537 28.3474C37.6878 27.4637 37.1514 26.6614 36.4755 25.9866C35.7996 25.3118 34.9975 24.7779 34.1153 24.4155C33.2331 24.0531 32.2883 23.8695 31.3352 23.8751Z" fill="#F6F7F7"/>
<rect x="226.391" y="0.297607" width="62.6949" height="62.9505" fill="#F6F7F7"/>
<path opacity="0.3" d="M268.421 24.9363V36.7055L256.977 42.5882V30.8227L268.421 24.9363Z" fill="#3D3B70"/>
<path opacity="0.5" d="M256.972 30.8227V42.5882L245.523 36.7055V24.9363L256.972 30.8227Z" fill="#3D3B70"/>
<path opacity="0.05" d="M268.417 24.9358L256.972 30.8222L245.523 24.9358L256.972 19.053L268.417 24.9358Z" fill="#3D3B70"/>
<path opacity="0.85" d="M279.851 20.6248V30.8366L268.406 24.9393L279.441 19.2644C279.712 19.6773 279.853 20.1469 279.851 20.6248Z" fill="#3D3B70"/>
<path opacity="0.8" d="M279.851 30.822V41.0339C279.852 41.5105 279.711 41.9788 279.441 42.3906L268.406 36.7048L279.851 30.822Z" fill="#3D3B70"/>
<path opacity="0.95" d="M279.851 30.8225L268.406 36.7052V24.9397L279.851 30.8225Z" fill="#3D3B70"/>
<path opacity="0.5" d="M256.977 42.5876L268.425 36.7048V48.474L256.977 42.5876Z" fill="#3D3B70"/>
<path opacity="0.65" d="M268.425 13.1704V24.9396L256.977 19.0532L268.425 13.1704Z" fill="#3D3B70"/>
<path opacity="0.5" d="M268.421 13.1777L256.977 19.0532V7.70703C257.505 7.71006 258.023 7.83578 258.48 8.07174L268.421 13.1777Z" fill="#3D3B70"/>
<path opacity="0.6" d="M268.421 48.4746L258.5 53.5805L258.414 53.6243C257.972 53.8351 257.478 53.9454 256.977 53.9452V42.5881L268.421 48.4746Z" fill="#3D3B70"/>
<path opacity="0.7" d="M279.441 19.2647L268.406 24.9396V13.1777L278.327 18.2837C278.788 18.5193 279.172 18.8574 279.441 19.2647Z" fill="#3D3B70"/>
<path opacity="0.6" d="M279.441 42.3761C279.176 42.7903 278.792 43.134 278.327 43.3717L268.406 48.4777V36.7048L279.441 42.3761Z" fill="#3D3B70"/>
<path opacity="0.9" d="M245.523 36.7052L234.488 42.3765C234.22 41.964 234.079 41.4961 234.078 41.0197V30.8079L245.523 36.7052Z" fill="#3D3B70"/>
<path opacity="0.8" d="M245.523 24.9392L234.078 30.822V20.6101C234.078 20.1325 234.219 19.6633 234.488 19.2498L245.523 24.9392Z" fill="#3D3B70"/>
<path opacity="0.85" d="M234.078 30.8225L245.523 24.9397V36.7052L234.078 30.8225Z" fill="#3D3B70"/>
<path opacity="0.5" d="M256.968 19.0532L245.523 24.9396V13.1704L256.968 19.0532Z" fill="#3D3B70"/>
<path opacity="0.65" d="M245.523 48.474V36.7048L256.968 42.5876L245.523 48.474Z" fill="#3D3B70"/>
<path opacity="0.7" d="M256.972 42.5881V53.9379C256.471 53.939 255.976 53.8287 255.535 53.617L255.444 53.5732L245.523 48.4673L256.972 42.5881Z" fill="#3D3B70"/>
<path opacity="0.43" d="M256.972 7.70703V19.0532L245.523 13.1777L255.444 8.07174H255.465C255.923 7.83532 256.443 7.7096 256.972 7.70703Z" fill="#3D3B70"/>
<path opacity="0.7" d="M245.512 36.7048V48.474L235.595 43.3681C235.13 43.1316 234.744 42.7892 234.477 42.3761L245.512 36.7048Z" fill="#3D3B70"/>
<path opacity="0.7" d="M245.512 13.1777V24.9396L234.477 19.2647C234.748 18.8572 235.133 18.5192 235.595 18.2837L245.512 13.1777Z" fill="#3D3B70"/>
</svg>
